<?xml version="1.0" standalone="no"?>
<!DOCTYPE svg PUBLIC "-//W3C//DTD SVG 20010904//EN"
 "http://www.w3.org/TR/2001/REC-SVG-20010904/DTD/svg10.dtd">
<svg version="1.0" xmlns="http://www.w3.org/2000/svg"
 width="1237.000000pt" height="1280.000000pt" viewBox="0 0 1237.000000 1280.000000"
 preserveAspectRatio="xMidYMid meet">
<metadata>
Created by potrace 1.15, written by Peter Selinger 2001-2017
</metadata>
<g transform="translate(0.000000,1280.000000) scale(0.100000,-0.100000)"
fill="#000000" stroke="none">
<path d="M6943 12791 c-115 -19 -115 -19 -49 -54 75 -40 145 -103 186 -167 18
-27 37 -50 44 -50 19 0 57 29 121 91 63 61 123 94 194 105 24 4 38 11 34 15
-5 5 -54 21 -109 35 -109 28 -322 40 -421 25z"/>
<path d="M6375 12773 c-22 -2 -80 -10 -130 -19 -100 -18 -141 -33 -88 -34 49
0 80 -16 137 -70 l53 -50 48 55 c32 38 69 67 114 90 l66 34 -80 -1 c-44 -1
-98 -3 -120 -5z"/>
<path d="M6583 12716 c-23 -7 -58 -23 -77 -36 -51 -31 -147 -150 -121 -150 2
0 28 18 57 39 60 46 220 116 243 107 31 -12 9 -29 -95 -74 -88 -38 -114 -56
-162 -105 -48 -49 -61 -70 -78 -129 -23 -76 -23 -96 1 -111 13 -8 32 0 88 37
69 46 101 53 101 22 0 -21 -58 -66 -150 -115 -75 -40 -85 -49 -149 -139 -38
-53 -104 -131 -145 -172 -116 -113 -117 -120 -117 -535 0 -181 0 -353 0 -382
-1 -35 7 -70 26 -112 31 -68 31 -94 0 -228 -15 -66 -19 -73 -41 -73 -30 0 -30
9 -4 126 l19 89 -29 77 c-33 86 -37 135 -19 265 10 66 9 88 -2 115 -18 45 -81
111 -155 164 -100 72 -143 86 -269 92 -230 10 -325 -46 -456 -267 -182 -310
-213 -330 -511 -338 -193 -6 -221 -2 -216 30 3 22 5 22 128 18 131 -3 261 11
320 35 52 22 96 70 121 131 17 44 21 67 17 126 -3 41 -12 87 -23 107 -10 19
-66 85 -125 146 -115 118 -145 171 -157 276 -6 46 -5 48 20 48 23 0 27 -5 37
-57 20 -96 37 -124 144 -233 114 -116 132 -144 156 -240 l16 -65 44 75 c75
128 166 210 265 240 22 6 46 13 53 16 10 3 9 10 -3 33 -11 23 -15 61 -14 158
1 178 9 237 32 241 17 4 18 -5 11 -167 -6 -151 -5 -176 10 -210 l18 -38 103
-7 c57 -4 125 -13 152 -21 59 -18 156 -75 222 -132 28 -24 52 -43 54 -43 2 0
4 80 5 178 0 151 4 187 22 245 12 38 19 71 17 73 -2 3 -66 38 -142 78 -148 78
-385 240 -385 262 0 31 27 20 137 -60 65 -46 187 -121 272 -166 l153 -81 56
48 c31 27 91 98 134 158 43 60 85 113 93 118 25 14 18 22 -49 55 -92 46 -140
52 -395 52 -124 0 -300 5 -391 11 -158 11 -168 11 -245 -10 -120 -33 -206 -83
-275 -159 -32 -36 -57 -69 -54 -74 3 -4 23 -13 46 -20 40 -12 42 -11 68 20 18
22 32 31 43 26 23 -8 21 -17 -8 -52 -42 -50 -72 -54 -151 -21 -58 25 -82 29
-157 29 -73 0 -96 -4 -135 -24 -93 -48 -258 -207 -340 -328 -57 -84 -141 -270
-175 -390 -32 -111 -75 -198 -97 -198 -21 0 -21 30 -2 57 30 43 82 216 69 230
-8 8 -199 -25 -260 -45 -60 -19 -116 -72 -186 -175 -83 -124 -121 -211 -121
-280 0 -73 20 -121 73 -175 47 -48 134 -102 164 -102 11 0 34 18 53 41 32 40
32 42 26 110 -7 69 -7 69 18 69 21 0 26 -6 35 -50 21 -99 15 -114 -99 -225
-45 -44 -91 -98 -101 -120 -22 -47 -26 -182 -8 -264 20 -94 171 -292 263 -346
32 -19 159 -55 192 -55 2 0 -5 18 -16 39 -37 73 -36 106 9 239 35 104 41 135
41 206 0 91 -23 196 -65 295 -28 68 -27 91 4 91 14 0 27 -18 49 -72 50 -121
66 -193 66 -308 0 -96 -3 -114 -37 -210 -46 -130 -47 -171 -7 -233 53 -84 111
-117 348 -196 219 -73 212 -73 302 -6 41 31 140 102 220 158 80 55 149 104
154 108 5 4 -16 19 -45 32 -70 31 -223 159 -289 242 -62 78 -138 139 -294 235
-65 40 -146 99 -180 131 -57 54 -60 59 -44 75 16 16 20 14 69 -30 49 -44 86
-70 273 -189 86 -55 173 -131 227 -199 85 -108 281 -248 346 -248 9 0 43 17
77 39 91 57 163 92 235 112 35 10 66 20 68 23 2 2 -5 35 -16 72 -31 105 -70
350 -81 513 -15 224 -25 274 -76 386 -78 171 -80 175 -63 186 24 15 28 11 67
-68 91 -182 106 -243 122 -483 10 -156 33 -306 71 -478 11 -51 18 -100 15
-108 -5 -14 2 -15 56 -9 100 12 205 9 319 -10 89 -14 125 -15 221 -6 156 15
199 30 287 101 72 57 75 62 93 127 34 132 26 155 -105 291 -75 78 -87 95 -76
108 11 13 16 11 45 -17 19 -18 36 -31 38 -28 2 2 -6 29 -19 59 -27 60 -30 80
-15 80 12 0 52 -78 75 -148 9 -29 27 -65 40 -80 61 -73 75 -103 75 -162 0 -31
-6 -77 -13 -101 l-14 -44 156 0 c150 0 158 1 212 28 82 40 183 120 229 180 47
63 69 121 76 202 6 70 31 145 47 145 30 -1 40 -17 29 -47 -6 -15 -16 -65 -22
-111 -13 -111 -52 -193 -131 -271 -33 -33 -73 -68 -90 -78 -63 -37 -37 -36
166 10 241 55 369 59 528 16 l77 -21 57 43 c91 70 231 214 340 349 98 123 202
230 222 230 31 0 16 -30 -51 -99 -41 -42 -104 -112 -139 -156 -109 -138 -180
-214 -281 -302 -54 -47 -98 -88 -98 -92 0 -4 50 -36 111 -71 l112 -64 21 25
c11 13 28 36 38 49 15 23 17 24 33 9 11 -11 15 -24 11 -37 -8 -24 -90 -102
-108 -102 -7 0 -78 38 -157 84 -188 110 -226 121 -411 120 -131 0 -161 -4
-305 -37 -87 -21 -200 -42 -250 -48 -132 -16 -240 -37 -301 -60 -66 -25 -177
-99 -258 -173 l-59 -53 15 -39 c27 -67 30 -116 13 -190 -18 -82 -28 -99 -48
-91 -14 5 -14 13 -2 64 24 100 20 151 -21 233 -29 57 -34 74 -23 81 8 5 20 2
30 -7 15 -13 23 -9 80 43 81 73 117 99 204 145 62 33 67 38 39 38 -57 0 -128
-28 -179 -73 -93 -82 -162 -105 -341 -114 -91 -4 -154 -1 -249 12 -145 20
-227 17 -369 -16 -117 -27 -189 -63 -405 -206 -278 -182 -480 -335 -499 -377
-6 -13 -17 -72 -26 -132 -9 -60 -21 -139 -27 -176 -13 -79 -3 -105 72 -185 35
-37 49 -60 49 -81 0 -16 6 -49 13 -73 8 -24 12 -61 9 -81 -6 -57 15 -105 77
-167 58 -59 194 -148 246 -162 17 -4 68 -25 115 -46 83 -37 88 -38 200 -38 63
0 123 5 133 11 16 9 11 15 -37 48 -157 108 -176 265 -66 530 22 54 39 100 36
103 -2 2 -23 -12 -45 -32 -28 -26 -59 -75 -103 -162 -74 -147 -134 -213 -152
-166 -5 12 3 24 24 41 20 15 53 67 90 142 71 142 106 184 182 220 l56 27 -42
20 c-23 11 -57 33 -75 49 -19 15 -64 44 -101 64 -271 143 -291 156 -260 175 6
4 62 -21 125 -54 63 -34 117 -61 119 -61 3 0 -9 29 -25 65 -17 35 -28 69 -24
75 14 23 33 6 65 -61 64 -135 163 -216 297 -244 102 -22 149 -18 311 22 140
35 149 38 191 80 25 24 55 46 68 49 13 4 23 7 23 9 0 1 -22 51 -50 111 -55
121 -58 134 -32 134 13 0 31 -28 65 -102 72 -155 60 -146 223 -170 221 -31
247 -27 444 71 91 46 171 88 178 93 6 6 12 25 12 42 0 42 70 170 178 324 49
70 97 142 108 160 18 32 37 41 49 22 8 -14 -12 -49 -110 -190 -107 -153 -173
-264 -181 -307 l-6 -32 37 10 c29 8 53 7 103 -6 93 -23 195 -28 382 -18 158 9
169 11 232 42 75 37 101 62 138 129 14 26 33 48 43 50 45 9 -4 -93 -81 -165
-31 -30 -49 -53 -40 -53 8 0 68 -27 132 -60 l117 -60 127 0 127 0 125 128
c106 108 140 136 220 182 173 97 272 169 380 279 112 113 127 137 203 321 24
58 72 155 108 215 127 214 127 220 15 410 -117 196 -135 233 -116 245 26 17
34 11 65 -48 17 -31 67 -117 110 -191 75 -127 80 -138 78 -190 -1 -66 -16
-104 -90 -229 -64 -108 -69 -95 62 -163 79 -41 215 -143 215 -160 0 -27 -35
-18 -80 20 -53 45 -258 163 -273 158 -5 -1 -33 -60 -62 -131 -65 -155 -83
-182 -205 -307 -95 -97 -225 -192 -375 -274 -103 -57 -115 -66 -210 -170 l-87
-95 46 -72 c51 -79 57 -121 21 -126 -16 -2 -24 6 -33 31 -7 19 -26 53 -42 76
l-30 41 -122 -7 c-156 -7 -208 4 -323 69 -96 55 -185 77 -185 46 0 -31 32
-104 61 -141 17 -20 27 -42 24 -47 -25 -40 -93 46 -120 150 l-11 45 -230 -3
c-189 -3 -242 -1 -302 13 -43 10 -88 14 -108 10 -19 -3 -113 -46 -209 -96
-222 -113 -259 -123 -402 -109 -59 6 -135 15 -168 20 -33 5 -83 10 -111 11
-48 2 -52 0 -97 -47 -30 -31 -47 -58 -47 -74 0 -14 21 -61 47 -105 40 -69 48
-90 52 -150 l6 -70 71 -23 c60 -20 71 -27 67 -43 -8 -29 -15 -30 -87 -10 -92
26 -106 40 -106 112 0 51 -7 71 -55 164 -30 58 -55 116 -55 131 0 19 -4 24
-17 20 -126 -37 -232 -56 -316 -56 -143 0 -147 -3 -201 -124 -62 -143 -80
-208 -80 -296 0 -155 81 -233 326 -313 130 -43 152 -54 217 -113 47 -42 51
-49 37 -62 -13 -14 -20 -11 -59 25 -56 52 -87 68 -207 107 l-95 32 -70 -19
c-90 -24 -233 -25 -294 -3 -24 9 -46 14 -49 12 -7 -7 86 -63 183 -110 98 -48
210 -87 320 -112 94 -22 523 -31 650 -14 140 18 293 49 375 75 145 45 180 47
730 50 l525 2 165 -35 c154 -32 182 -35 420 -42 140 -4 311 -14 380 -23 69 -8
175 -18 235 -22 61 -4 153 -13 205 -21 162 -24 330 -15 351 18 15 22 10 67
-11 108 -13 26 -54 67 -116 116 -59 47 -128 115 -178 175 -44 55 -86 99 -93
99 -7 0 -52 -12 -100 -26 -66 -19 -120 -27 -215 -31 -71 -3 -128 -9 -128 -13
0 -4 9 -15 20 -25 33 -30 53 -98 48 -164 -5 -67 -8 -74 -30 -66 -12 5 -15 23
-14 79 1 65 -2 76 -28 110 -41 54 -100 93 -159 105 -29 6 -196 27 -372 46
-300 34 -328 36 -449 26 -71 -6 -179 -11 -240 -11 -102 1 -118 4 -196 34 -97
39 -93 40 -207 -32 -127 -80 -177 -101 -260 -113 -98 -14 -215 -5 -365 28 -64
14 -127 23 -140 20 -13 -4 -52 -25 -88 -48 -83 -54 -134 -69 -234 -68 -105 2
-140 10 -144 32 -4 17 3 18 100 12 124 -8 168 3 266 67 60 39 72 43 127 43 33
0 106 -10 162 -23 72 -16 134 -22 217 -22 142 0 179 11 328 103 60 36 121 68
137 72 21 4 50 -3 103 -25 95 -41 157 -46 387 -30 174 12 199 11 386 -9 336
-36 510 -60 546 -74 24 -10 77 -13 179 -12 121 2 161 6 241 28 138 38 256 92
412 190 125 78 138 84 147 67 8 -16 -4 -27 -93 -84 -56 -37 -144 -88 -194
-114 -51 -26 -93 -50 -93 -54 0 -18 145 -179 206 -228 37 -30 85 -70 105 -88
72 -63 101 -169 64 -226 l-17 -26 88 0 c101 1 216 19 288 46 l49 19 14 65 c8
36 15 124 16 195 l2 130 43 58 c65 87 76 119 76 222 0 105 -22 212 -70 341
-38 102 -39 110 -21 117 6 3 -47 6 -118 6 l-130 1 0 -132 c0 -116 -5 -191 -31
-446 -5 -43 -9 -53 -22 -50 -21 4 -21 45 -3 248 7 80 12 204 9 275 -3 114 -8
142 -36 225 -31 89 -95 210 -146 272 l-22 28 -56 -35 c-63 -40 -109 -96 -192
-238 -97 -166 -231 -316 -373 -418 -46 -32 -99 -77 -119 -99 -36 -40 -57 -49
-69 -30 -11 18 58 89 154 157 114 82 249 224 322 338 174 274 166 265 276 340
185 127 294 243 323 343 27 92 24 132 -18 262 -24 74 -49 182 -62 265 -56 359
-144 599 -264 720 -115 115 -297 183 -457 171 -101 -7 -121 -16 -154 -71 -30
-53 -92 -125 -106 -125 -26 0 -17 34 19 77 46 55 72 103 83 153 18 78 -61 166
-370 413 -94 76 -171 142 -171 148 0 34 43 9 202 -117 280 -224 374 -323 385
-402 l5 -40 103 5 c127 7 224 -13 333 -67 143 -72 244 -189 312 -360 52 -133
67 -155 340 -500 81 -102 168 -216 195 -255 26 -38 59 -77 74 -86 55 -35 126
-114 138 -155 21 -68 26 -203 13 -332 l-12 -123 51 -102 51 -102 -6 120 c-17
370 -93 669 -201 786 -13 14 -38 66 -54 114 -70 203 -183 366 -296 426 -29 16
-30 20 -41 115 -12 102 -33 177 -72 254 -65 130 -208 280 -353 370 -78 49 -88
59 -98 95 -13 51 -49 105 -114 175 -28 30 -71 82 -95 115 -90 122 -214 233
-357 319 -153 92 -410 193 -588 231 -44 10 -123 35 -175 55 -213 84 -351 108
-650 112 -252 3 -251 4 -376 -112 -40 -38 -83 -71 -94 -75 -26 -8 -25 -16 6
-79 42 -85 46 -85 128 -2 82 84 130 109 260 136 109 23 116 24 116 7 0 -9 -36
-21 -107 -36 -60 -12 -130 -34 -156 -49 -50 -27 -143 -120 -131 -131 3 -3 56
-11 119 -17 142 -15 197 -33 282 -95 61 -44 73 -49 120 -49 47 0 54 3 67 28 8
16 24 64 35 107 11 43 28 90 38 103 25 34 137 100 201 118 60 18 43 22 252
-66 80 -34 199 -77 265 -97 129 -37 293 -114 395 -183 134 -91 179 -151 180
-241 0 -42 2 -46 38 -63 76 -37 180 -113 271 -201 95 -91 285 -309 399 -458
35 -45 74 -94 88 -108 22 -23 23 -27 10 -45 -21 -27 -38 -14 -116 87 -114 149
-334 401 -429 492 -79 76 -230 187 -254 187 -5 0 -32 11 -61 25 -29 14 -84 32
-122 41 -166 37 -197 48 -286 101 -228 136 -292 156 -488 156 -141 0 -189 -7
-382 -50 l-117 -26 -57 -94 c-70 -118 -189 -277 -244 -327 l-42 -37 21 -52
c31 -82 33 -106 11 -187 -30 -111 -37 -219 -17 -268 14 -36 15 -41 1 -46 -22
-9 -22 -9 -39 24 -22 42 -19 165 6 263 24 94 22 150 -10 218 -19 43 -30 52
-141 114 -66 38 -120 74 -120 81 0 28 24 24 88 -14 125 -74 171 -93 191 -82
26 13 85 82 153 176 56 79 158 242 158 253 0 14 -166 121 -211 136 l-50 17
-177 -100 c-97 -55 -202 -112 -232 -127 -74 -36 -223 -183 -260 -255 -56 -110
-72 -183 -72 -320 0 -104 5 -142 28 -225 34 -126 36 -160 10 -160 -36 0 -196
243 -196 298 0 40 32 12 71 -63 23 -45 44 -79 46 -76 3 2 -1 48 -8 102 -10 79
-17 105 -42 141 -16 25 -41 49 -56 55 -109 42 -211 106 -211 133 0 24 21 18
85 -25 59 -39 151 -77 162 -67 6 6 -53 93 -133 195 -46 59 -55 75 -43 83 18
12 88 -62 166 -178 31 -46 60 -83 63 -83 4 0 12 23 18 51 7 27 26 84 43 125
27 65 47 92 146 196 114 120 163 193 146 222 -15 26 -238 198 -290 224 -35 17
-53 32 -53 44 0 58 83 19 255 -118 132 -106 144 -119 145 -151 0 -13 3 -23 8
-23 4 1 29 28 55 62 l48 61 -31 28 c-17 16 -54 78 -85 142 -45 93 -66 124
-115 171 -83 79 -152 109 -260 113 -53 2 -101 -2 -127 -11z m1654 -947 c-88
-102 -89 -106 -81 -184 12 -119 1 -181 -53 -288 -13 -27 -22 -51 -19 -54 3 -4
41 28 84 69 105 101 141 113 322 113 128 0 138 -2 192 -28 153 -75 297 -323
324 -558 4 -33 10 -62 14 -64 4 -3 25 9 46 26 46 37 107 66 149 71 24 2 30 -1
30 -16 0 -14 -12 -23 -47 -33 -64 -18 -173 -102 -173 -133 0 -23 11 -30 78
-44 20 -5 27 -12 27 -31 0 -22 -5 -25 -32 -25 -42 0 -114 33 -126 57 -5 10
-12 61 -15 113 -16 254 -145 507 -299 584 -46 23 -64 26 -163 26 -165 0 -191
-10 -327 -131 -118 -106 -168 -136 -274 -165 -69 -18 -94 -15 -94 14 0 15 16
24 80 42 60 17 87 30 105 52 38 44 91 146 115 218 19 57 21 77 15 162 -8 116
1 140 81 224 45 47 57 54 69 44 13 -11 9 -19 -28 -61z m-1805 -2263 c7 -14 6
-22 -6 -34 -15 -15 -19 -13 -53 20 -36 37 -37 38 -18 58 l18 20 25 -22 c13
-13 28 -31 34 -42z m780 -332 c-4 -80 8 -117 57 -178 25 -32 29 -42 19 -54
-11 -12 -18 -9 -49 27 -54 61 -69 99 -69 179 0 82 6 104 29 100 13 -3 15 -15
13 -74z m-1986 -620 c118 -82 172 -129 161 -140 -4 -4 -22 3 -40 16 -17 14
-81 60 -142 103 -60 43 -111 82 -113 88 -9 24 35 2 134 -67z"/>
<path d="M6016 12695 c-22 -9 -73 -11 -200 -8 -143 5 -191 2 -291 -15 -253
-44 -485 -151 -670 -310 -33 -29 -70 -52 -82 -52 -23 0 -95 -28 -158 -62 -95
-51 -169 -110 -306 -246 -145 -142 -148 -144 -223 -167 -69 -21 -86 -32 -169
-108 -51 -46 -112 -97 -137 -114 -108 -73 -213 -227 -285 -418 -13 -33 -48
-108 -78 -167 -65 -126 -85 -213 -67 -290 7 -26 16 -51 21 -54 6 -3 28 13 51
35 l41 41 -18 39 c-28 63 -18 178 22 264 44 92 146 239 199 286 48 42 132 73
249 91 39 6 84 13 102 16 29 4 36 13 86 118 69 144 116 212 218 320 92 97 181
168 254 202 41 20 66 24 144 24 l93 0 82 80 c65 63 99 87 167 119 107 50 204
74 289 69 l65 -3 5 55 c6 61 23 100 44 100 21 0 25 -23 10 -51 -11 -20 -20
-106 -11 -110 1 -1 153 -5 337 -8 314 -7 339 -9 395 -30 33 -13 67 -25 75 -27
12 -4 21 13 39 68 13 40 30 80 38 90 13 14 11 21 -12 57 -40 64 -97 123 -132
138 -18 7 -52 13 -77 13 -30 0 -46 5 -50 15 -6 18 -21 18 -60 0z"/>
<path d="M8083 12458 c-105 -52 -121 -71 -150 -173 -13 -50 -27 -97 -30 -106
-4 -14 6 -14 94 4 77 17 136 21 278 21 172 1 184 -1 260 -27 44 -16 141 -64
215 -107 74 -44 155 -84 180 -90 25 -5 83 -19 130 -31 147 -36 132 -37 125 7
-4 22 -18 56 -31 76 -54 85 -316 232 -509 288 -60 17 -185 62 -277 101 -92 38
-180 69 -195 69 -15 -1 -56 -15 -90 -32z"/>
<path d="M4522 12266 c-118 -64 -329 -242 -414 -349 l-32 -40 29 7 c19 5 84
61 180 154 136 133 189 177 295 240 57 35 11 25 -58 -12z"/>
<path d="M7209 12238 c-13 -18 -53 -66 -88 -107 -37 -42 -56 -72 -45 -67 39
14 338 186 332 191 -1 1 -42 6 -89 10 l-87 7 -23 -34z"/>
<path d="M9953 10785 c10 -37 36 -179 53 -285 9 -58 33 -157 55 -221 21 -64
39 -134 39 -155 0 -50 -24 -143 -49 -192 -35 -68 -136 -176 -233 -247 -16 -12
-19 -19 -10 -22 33 -13 138 -199 177 -313 19 -56 26 -66 51 -71 61 -13 213 -8
324 11 147 25 183 26 178 3 -3 -15 -26 -22 -118 -37 -63 -11 -116 -20 -118
-21 -1 -1 12 -35 28 -76 47 -113 81 -253 87 -361 3 -54 9 -98 14 -98 15 0 88
102 139 194 67 122 101 164 117 145 9 -11 4 -26 -23 -69 -20 -30 -48 -80 -64
-111 -16 -32 -51 -86 -79 -122 l-49 -65 40 -39 c22 -21 53 -57 68 -81 l28 -43
22 57 c64 173 94 341 94 544 l1 165 -58 115 c-59 119 -61 119 -41 -2 6 -34 4
-38 -14 -38 -16 0 -22 10 -31 50 -15 68 -14 126 4 240 19 126 19 311 0 377
-11 36 -27 62 -56 88 -50 45 -54 41 -62 -65 -4 -41 -18 -111 -32 -154 -26 -82
-45 -182 -42 -226 3 -36 -30 -40 -39 -5 -9 35 11 151 42 250 17 51 28 114 31
175 l6 95 -54 80 c-48 71 -379 496 -417 535 -12 13 -14 13 -9 -5z"/>
<path d="M3454 10693 c-24 -28 -85 -134 -100 -177 -8 -21 -14 -73 -14 -115 0
-136 75 -301 202 -448 47 -54 57 -72 72 -138 23 -96 71 -192 135 -271 100
-123 303 -249 515 -319 120 -40 303 -82 313 -72 6 7 32 180 33 225 0 17 -11
28 -43 43 l-43 21 -34 -32 c-47 -44 -102 -70 -150 -70 -32 0 -40 4 -40 19 0
14 9 19 43 23 45 5 121 49 131 75 4 10 -8 31 -32 57 -20 22 -50 57 -65 78 -19
24 -47 44 -85 59 -31 12 -74 34 -96 47 -44 27 -30 30 -196 -44 -74 -34 -95
-39 -160 -39 -87 0 -130 10 -130 30 0 22 10 23 78 13 50 -7 73 -6 119 7 63 18
158 63 150 71 -3 3 -35 12 -72 19 -37 8 -86 25 -109 39 -53 31 -171 153 -225
235 -67 99 -84 156 -84 291 -1 127 15 182 67 229 14 14 26 30 26 37 0 7 -19
23 -42 37 -24 14 -60 39 -82 56 -44 36 -60 38 -82 14z"/>
<path d="M4481 9554 c30 -32 123 -94 141 -94 9 0 29 61 23 71 -3 4 -22 11 -43
15 -20 4 -61 15 -91 25 -30 11 -57 19 -60 19 -2 0 11 -16 30 -36z"/>
<path d="M10413 8628 c-11 -13 -44 -58 -73 -101 l-53 -78 6 -97 c4 -65 2 -118
-7 -159 -8 -35 -11 -63 -9 -63 3 0 34 20 68 45 69 49 129 112 183 193 30 45
35 60 33 103 -1 47 -6 57 -57 115 -31 35 -60 64 -63 64 -4 0 -17 -10 -28 -22z"/>
<path d="M7183 8143 c-8 -21 15 -75 87 -198 80 -137 95 -175 116 -305 18 -115
42 -172 97 -228 67 -70 312 -206 499 -278 147 -57 229 -66 567 -62 269 4 303
6 376 27 270 76 461 160 553 246 66 61 108 127 164 257 23 54 54 108 75 129
19 20 39 53 44 75 15 64 -8 186 -38 202 -8 5 -56 7 -107 5 -64 -4 -126 1 -211
16 -78 13 -208 24 -370 31 -523 22 -773 41 -970 77 -119 21 -874 27 -882 6z"/>
<path d="M6910 8139 c-73 -12 -120 -28 -120 -41 0 -5 18 -45 40 -87 54 -103
151 -223 243 -298 68 -56 85 -78 158 -200 310 -523 422 -790 559 -1328 34
-132 81 -308 105 -391 65 -220 195 -743 254 -1014 101 -472 145 -809 124 -937
-18 -103 -14 -101 -207 -68 -91 16 -164 30 -162 33 3 2 19 11 37 20 50 26 72
71 71 150 0 37 -8 87 -16 111 -9 24 -16 45 -16 48 0 14 28 -20 80 -98 73 -108
117 -159 137 -159 13 0 14 10 8 56 -7 59 -96 418 -164 664 -22 80 -66 251 -99
380 -73 287 -100 358 -161 421 -39 40 -55 49 -106 59 -160 33 -281 -52 -307
-216 -10 -65 -9 -68 13 -85 22 -16 22 -19 10 -57 -13 -37 -12 -43 8 -68 11
-14 21 -32 21 -38 1 -28 42 -62 92 -76 51 -15 53 -17 56 -53 2 -23 -10 -77
-34 -146 -42 -122 -40 -121 -148 -121 -46 0 -59 6 -131 56 -44 31 -101 75
-126 98 -140 124 -189 151 -122 69 37 -47 36 -46 -40 20 -72 62 -108 84 -91
55 19 -32 106 -131 192 -219 l94 -96 -31 -6 c-68 -14 -158 -125 -283 -351 -77
-139 -88 -166 -67 -166 5 0 3 -13 -7 -29 -15 -26 -27 -31 -108 -46 -50 -10
-106 -26 -124 -36 -31 -18 -58 -19 -350 -19 -275 0 -552 -12 -822 -36 l-76 -7
4 41 c5 56 -23 145 -59 187 -55 62 -124 55 -210 -22 -81 -73 -147 -204 -119
-238 7 -8 9 -15 4 -15 -17 0 -359 -59 -462 -80 -57 -11 -105 -20 -107 -20 -2
0 3 21 11 47 17 57 18 120 1 153 -7 13 -28 35 -47 48 -31 21 -43 23 -115 20
-84 -4 -178 -38 -235 -85 l-24 -21 -47 42 c-43 39 -102 66 -143 66 -20 0 -21
16 -1 24 28 10 15 41 -37 93 -82 79 -139 100 -184 68 -45 -31 -70 -129 -40
-157 11 -11 -6 -16 -98 -29 -181 -26 -291 -81 -437 -218 -139 -130 -278 -326
-385 -542 l-37 -76 -121 -54 c-188 -82 -447 -208 -605 -293 -363 -196 -901
-564 -1196 -818 -150 -130 -347 -335 -424 -443 -232 -325 -239 -601 -22 -823
588 -601 2781 -834 6636 -707 693 23 1432 56 1915 86 91 5 320 14 510 19 214
6 455 19 635 35 160 14 337 30 395 35 58 6 209 14 335 20 520 23 726 42 940
86 492 103 760 317 831 664 52 259 -58 545 -341 887 -396 478 -1113 970 -1915
1314 l-120 51 32 17 c43 21 52 63 33 154 -25 123 -93 242 -166 293 -56 39
-103 47 -168 28 -45 -13 -68 -28 -128 -89 -80 -80 -115 -142 -106 -189 5 -25
4 -28 -11 -23 -10 4 -29 10 -42 13 -19 5 -23 11 -18 29 6 24 -22 88 -63 143
-26 35 -71 62 -102 62 -32 0 -89 -57 -103 -101 -7 -25 -16 -38 -24 -35 -7 3
-31 10 -52 16 -39 10 -40 12 -91 134 -102 247 -208 582 -427 1345 -217 754
-301 1034 -419 1401 -79 246 -232 661 -252 683 -10 10 -40 31 -68 44 -84 43
-331 209 -374 252 -53 53 -78 103 -91 187 -6 38 -16 96 -22 129 -6 40 -32 103
-77 190 -37 72 -77 154 -88 183 l-22 52 -83 -1 c-46 -1 -108 -5 -138 -10z
m575 -3689 c20 0 25 -8 33 -47 6 -26 9 -49 8 -51 -2 -1 -32 23 -67 55 -62 55
-63 56 -30 50 18 -4 44 -7 56 -7z m-144 -446 c46 -47 104 -99 129 -116 l45
-30 -52 5 c-29 3 -142 13 -250 23 -109 9 -204 18 -210 20 -18 5 -16 49 2 64
12 10 26 8 75 -10 59 -22 61 -22 81 -4 11 10 37 44 56 76 20 32 37 58 38 58 2
0 40 -39 86 -86z m-3229 -273 l58 -29 -65 -16 c-35 -9 -68 -16 -74 -16 -5 0
-14 21 -20 48 -5 26 -13 56 -17 67 -7 18 -6 18 27 -3 19 -13 60 -36 91 -51z"/>
<path d="M6760 5345 c-4 -11 -20 -51 -35 -88 -24 -60 -26 -70 -13 -85 57 -68
209 -241 221 -251 12 -10 31 -5 103 28 77 35 88 43 88 65 0 38 -297 354 -332
352 -14 0 -28 -9 -32 -21z"/>
</g>
</svg>
