<?xml version="1.0" standalone="no"?>
<!DOCTYPE svg PUBLIC "-//W3C//DTD SVG 20010904//EN"
 "http://www.w3.org/TR/2001/REC-SVG-20010904/DTD/svg10.dtd">
<svg version="1.0" xmlns="http://www.w3.org/2000/svg"
 width="771.000000pt" height="1280.000000pt" viewBox="0 0 771.000000 1280.000000"
 preserveAspectRatio="xMidYMid meet">
<metadata>
Created by potrace 1.15, written by Peter Selinger 2001-2017
</metadata>
<g transform="translate(0.000000,1280.000000) scale(0.100000,-0.100000)"
fill="#000000" stroke="none">
<path d="M3540 12794 c-1304 -78 -2313 -554 -2946 -1390 -527 -698 -722 -1600
-508 -2348 180 -627 621 -1049 1199 -1146 139 -23 297 -32 400 -22 l80 7 22
165 c12 91 25 251 29 355 6 164 5 198 -11 250 -30 106 -92 219 -230 424 -145
216 -186 290 -233 421 -197 547 -183 1061 38 1488 79 153 165 266 296 391 266
254 618 414 1071 487 134 21 509 30 643 15 316 -36 592 -133 831 -292 115 -77
322 -281 397 -391 177 -261 259 -566 206 -770 l-15 -60 35 -51 c20 -29 115
-150 211 -271 319 -400 372 -499 313 -585 -29 -43 -146 -108 -208 -116 -67 -9
-108 -30 -116 -61 -9 -37 22 -138 68 -216 37 -63 39 -70 28 -103 -7 -22 -27
-46 -56 -67 -24 -17 -44 -38 -44 -45 0 -8 18 -36 40 -62 22 -26 40 -56 40 -67
0 -11 -20 -44 -45 -73 -89 -104 -92 -131 -39 -295 47 -145 54 -228 25 -290
-31 -63 -127 -149 -195 -175 -80 -30 -195 -41 -418 -41 l-198 0 -28 -46 c-15
-26 -74 -121 -131 -213 -196 -313 -273 -446 -371 -646 -349 -708 -522 -1454
-533 -2285 l-2 -205 431 -3 431 -2 7 37 c3 21 6 58 6 83 0 81 30 312 60 460
75 377 211 695 409 961 265 355 545 589 1322 1102 498 328 664 448 894 643
469 399 751 824 880 1329 61 238 78 385 79 680 1 325 -25 533 -99 790 -124
434 -342 801 -675 1136 -315 318 -655 544 -1112 740 -421 180 -895 296 -1448
355 -139 14 -688 26 -830 18z"/>
<path d="M3440 3055 c-185 -31 -374 -98 -528 -190 -124 -73 -201 -133 -307
-240 -202 -204 -343 -462 -413 -760 -24 -100 -26 -129 -27 -325 0 -171 4 -232
18 -300 132 -618 594 -1078 1217 -1211 88 -19 136 -23 295 -23 159 0 207 4
295 23 313 67 559 199 780 421 223 222 364 486 427 797 28 136 25 462 -5 600
-135 622 -566 1065 -1160 1194 -127 27 -462 35 -592 14z"/>
</g>
</svg>
