<?xml version="1.0" standalone="no"?>
<!DOCTYPE svg PUBLIC "-//W3C//DTD SVG 20010904//EN"
 "http://www.w3.org/TR/2001/REC-SVG-20010904/DTD/svg10.dtd">
<svg version="1.0" xmlns="http://www.w3.org/2000/svg"
 width="1280.000000pt" height="1280.000000pt" viewBox="0 0 1280.000000 1280.000000"
 preserveAspectRatio="xMidYMid meet">
<metadata>
Created by potrace 1.15, written by Peter Selinger 2001-2017
</metadata>
<g transform="translate(0.000000,1280.000000) scale(0.100000,-0.100000)"
fill="#000000" stroke="none">
<path d="M6470 12785 c-346 -44 -686 -353 -792 -720 -20 -70 -23 -102 -23
-250 0 -161 3 -181 42 -370 80 -380 80 -579 -2 -813 -33 -94 -33 -155 -1 -187
54 -54 153 -43 314 35 82 40 117 65 170 118 101 101 133 163 247 477 64 176
148 336 204 388 48 45 53 47 107 47 79 0 109 -22 201 -148 74 -101 78 -110 77
-157 -1 -35 -17 -90 -53 -184 -79 -203 -98 -341 -67 -476 34 -143 103 -250
276 -430 69 -71 169 -183 223 -247 53 -64 127 -141 164 -171 38 -30 75 -62 83
-72 8 -10 38 -29 65 -42 l50 -24 -65 5 c-36 3 -108 10 -160 16 -153 19 -537 8
-690 -19 -134 -24 -710 -167 -813 -202 -161 -55 -269 -134 -316 -232 -41 -83
-57 -152 -81 -337 -34 -259 -56 -326 -142 -433 -26 -33 -48 -66 -48 -73 0 -7
12 -26 26 -44 31 -36 37 -11 -69 -320 -106 -311 -136 -470 -162 -845 -9 -121
-24 -312 -35 -425 -23 -242 -43 -625 -38 -729 3 -68 5 -76 31 -95 27 -20 40
-21 255 -20 125 1 352 11 505 23 159 12 369 21 488 21 242 0 226 -5 366 102
88 67 158 103 177 91 11 -7 -1 -163 -20 -264 -8 -42 -42 -193 -76 -335 -108
-458 -110 -472 -83 -524 22 -43 57 -49 183 -36 l73 8 -6 -68 c-4 -38 -15 -125
-26 -194 -10 -69 -26 -188 -34 -265 -32 -294 -72 -461 -145 -610 -99 -203
-187 -268 -570 -422 -262 -106 -345 -146 -428 -210 -97 -74 -236 -224 -264
-284 -13 -26 -27 -47 -32 -46 -18 6 -46 100 -71 243 -29 170 -79 367 -131 516
-61 176 -148 337 -329 608 -195 291 -266 415 -358 620 -107 240 -163 404 -181
534 -5 38 -5 38 23 33 89 -18 129 -19 159 -3 56 29 66 75 30 134 -19 31 -22
51 -23 166 -2 130 -2 132 -60 316 l-59 185 -6 280 c-7 286 -12 324 -52 391
-25 42 -20 75 18 136 34 54 64 150 64 207 0 118 -57 247 -156 351 l-73 76 5
70 6 69 -71 121 c-101 176 -208 341 -256 399 -64 76 -76 105 -63 149 9 28 9
45 0 70 -25 70 24 189 99 240 44 30 87 41 217 56 56 6 124 18 151 26 111 33
228 163 271 301 11 35 29 115 41 177 28 153 54 197 167 284 147 114 182 151
189 199 9 65 -31 135 -149 261 -56 59 -121 134 -145 167 -87 117 -162 295
-204 486 -21 97 -49 318 -49 388 l0 43 33 -5 c17 -3 44 -9 59 -12 21 -6 32 -2
52 18 33 33 33 71 0 119 l-27 38 18 40 c24 54 13 76 -68 134 -109 78 -270 144
-439 180 -37 8 -35 25 7 66 96 93 42 168 -136 191 -93 12 -311 5 -427 -13 -88
-14 -98 -10 -132 60 -38 77 -66 102 -114 102 -23 0 -86 -14 -141 -30 -55 -17
-158 -46 -230 -64 -71 -19 -155 -45 -185 -60 -30 -14 -63 -26 -72 -26 -22 0
-40 28 -69 104 -28 75 -57 106 -102 106 -58 0 -91 -47 -150 -215 -51 -144 -75
-197 -90 -193 -6 2 -41 60 -77 129 -75 145 -98 179 -134 199 -34 18 -69 2 -93
-42 -20 -39 -24 -174 -9 -380 9 -125 9 -127 -17 -180 -19 -39 -51 -75 -117
-133 -238 -209 -357 -417 -368 -643 -4 -89 -2 -105 13 -122 25 -27 78 -26 159
5 100 38 95 42 89 -87 -7 -159 -2 -169 105 -197 38 -11 45 -18 72 -71 50 -98
69 -154 120 -352 27 -103 61 -212 75 -242 32 -68 99 -144 164 -185 76 -49 335
-161 372 -161 27 0 42 10 79 50 56 61 80 65 80 14 0 -48 -47 -130 -106 -184
-53 -49 -43 -49 -224 4 -219 64 -336 82 -593 92 -143 6 -172 4 -247 -14 -74
-18 -106 -20 -240 -15 -129 5 -165 3 -215 -11 -193 -57 -368 -213 -496 -443
-64 -117 -155 -332 -197 -468 -47 -153 -325 -1265 -371 -1485 -23 -107 -55
-253 -72 -324 -92 -386 -111 -519 -90 -630 15 -84 52 -157 107 -216 96 -103
226 -157 504 -211 200 -38 414 -48 661 -29 90 6 221 15 292 20 192 12 204 26
205 230 1 146 18 340 31 353 6 6 31 -23 66 -77 l57 -87 -11 -62 c-35 -205 -33
-353 5 -469 17 -51 57 -98 84 -98 10 0 27 -8 38 -18 18 -15 20 -24 14 -77 -4
-35 -2 -100 6 -155 19 -140 18 -403 -2 -535 -23 -147 -74 -360 -142 -585 -112
-371 -234 -636 -440 -953 -173 -264 -341 -467 -590 -712 -95 -93 -178 -183
-184 -199 -15 -41 -5 -63 54 -125 32 -34 46 -55 38 -58 -63 -23 -243 -204
-427 -428 -97 -119 -125 -165 -125 -206 0 -36 58 -97 179 -188 64 -49 181
-143 261 -210 389 -328 881 -608 1140 -650 146 -24 238 -9 387 64 199 98 281
225 271 420 -4 74 -9 94 -46 167 -59 120 -131 202 -269 304 -202 150 -257 203
-277 270 -6 20 -2 21 81 26 99 6 153 25 200 70 57 55 81 125 154 441 15 65 41
138 80 216 102 213 185 320 494 646 119 126 243 261 275 300 74 92 176 243
196 294 16 40 34 54 57 45 14 -5 202 -203 284 -299 130 -152 415 -634 518
-875 83 -193 174 -514 226 -793 14 -77 28 -126 42 -143 25 -32 74 -54 123 -54
27 0 44 -8 69 -33 47 -47 64 -116 75 -297 6 -109 15 -175 29 -222 37 -116 140
-232 230 -259 23 -7 138 -9 316 -7 l280 3 115 41 c63 23 184 67 269 98 198 74
268 91 475 116 278 34 397 66 522 141 120 72 219 218 245 362 24 130 -18 245
-116 319 -67 51 -127 72 -272 97 -157 26 -364 21 -563 -16 -187 -34 -478 -43
-529 -16 -19 10 -36 23 -38 29 -3 10 98 59 214 104 52 20 83 57 83 100 0 29
-9 47 -40 83 -24 26 -40 55 -40 70 0 31 49 76 210 193 299 216 395 272 1215
711 438 234 555 310 686 443 76 77 199 249 237 330 61 132 88 141 172 54 30
-31 96 -83 145 -117 50 -33 120 -83 156 -112 36 -28 119 -82 184 -120 233
-137 379 -324 435 -558 24 -100 28 -153 40 -517 12 -372 38 -519 140 -783 54
-139 87 -187 247 -355 135 -143 199 -194 264 -214 35 -10 40 -9 76 21 44 37
77 40 97 9 27 -43 57 -182 71 -327 24 -250 82 -378 199 -439 45 -24 62 -27
151 -26 166 0 329 47 740 212 110 44 295 113 410 152 725 250 890 336 960 502
8 21 15 52 15 69 0 102 -148 207 -336 240 -89 15 -311 7 -484 -19 -223 -34
-378 -45 -567 -40 -152 4 -186 8 -235 27 -31 12 -61 28 -68 36 -15 18 1 26
117 64 127 42 295 116 369 163 67 42 99 85 89 118 -10 31 -64 70 -153 111 -45
21 -126 64 -180 96 -170 100 -347 300 -482 541 -105 189 -235 404 -297 490
-34 48 -142 209 -240 357 -261 397 -368 628 -490 1055 -154 541 -225 736 -328
894 -59 91 -59 91 45 103 129 15 134 20 126 148 -18 303 -43 475 -116 795 -26
118 -62 291 -80 383 -33 181 -40 205 -70 247 -11 16 -20 33 -20 38 0 6 18 31
39 56 83 96 218 352 281 531 52 150 101 409 107 570 6 157 -7 236 -53 327 -59
117 -199 224 -307 235 -46 5 -56 2 -84 -21 -17 -14 -34 -26 -37 -26 -4 0 -28
20 -54 44 -63 58 -187 148 -242 176 -76 38 -80 44 -80 125 0 91 28 202 79 310
48 103 48 103 208 48 101 -35 116 -37 228 -38 111 0 124 2 175 27 112 55 230
186 297 328 19 41 46 91 59 110 13 20 30 68 38 110 28 146 57 203 226 445 115
164 180 278 180 315 0 42 -31 78 -112 133 -131 89 -165 150 -233 432 -25 99
-47 190 -51 202 -5 17 5 33 49 75 64 63 82 108 73 185 -15 125 -74 219 -202
319 -76 59 -84 69 -84 99 0 49 -41 90 -188 192 -221 152 -388 222 -633 265
-205 35 -315 31 -569 -21 -175 -35 -229 -51 -370 -108 -209 -84 -302 -127
-415 -191 -59 -35 -92 -49 -99 -42 -5 5 -16 49 -23 97 -18 128 -106 302 -206
409 -87 94 -143 130 -284 188 -206 84 -223 88 -388 92 -88 2 -193 -3 -255 -11z
m2490 -653 c26 -4 -27 -7 -125 -7 -93 0 -147 3 -120 6 71 8 192 9 245 1z
m-313 -18 c-3 -3 -12 -4 -19 -1 -8 3 -5 6 6 6 11 1 17 -2 13 -5z m-1714 -231
c-18 -2 -48 -2 -65 0 -18 2 -4 4 32 4 36 0 50 -2 33 -4z m717 -177 c0 -7 -97
-76 -106 -76 -5 0 16 18 46 40 57 41 60 43 60 36z m1697 -454 c-9 -10 -36 -28
-59 -40 -24 -13 -35 -17 -24 -10 10 7 35 25 55 40 43 32 50 34 28 10z m-4960
-208 c-3 -3 -12 -4 -19 -1 -8 3 -5 6 6 6 11 1 17 -2 13 -5z m3953 -61 c-8 -3
-30 -12 -47 -19 -18 -7 -33 -11 -33 -8 0 7 63 33 80 33 13 -1 13 -1 0 -6z
m375 -160 c46 -54 50 -60 16 -28 -40 37 -87 95 -78 95 2 0 30 -30 62 -67z
m-4618 -10 c-3 -10 -5 -2 -5 17 0 19 2 27 5 18 2 -10 2 -26 0 -35z m5316 -780
c-7 -2 -21 -2 -30 0 -10 3 -4 5 12 5 17 0 24 -2 18 -5z m-1533 -153 c-8 -5
-19 -10 -25 -10 -5 0 -3 5 5 10 8 5 20 10 25 10 6 0 3 -5 -5 -10z m-5010 -224
c0 -2 -8 -10 -17 -17 -16 -13 -17 -12 -4 4 13 16 21 21 21 13z m5949 -90 c-2
-2 -17 -6 -34 -10 -22 -5 -26 -4 -15 4 14 9 59 15 49 6z m296 -74 c-3 -3 -11
0 -18 7 -9 10 -8 11 6 5 10 -3 15 -9 12 -12z m-4582 -169 c-13 -2 -33 -2 -45
0 -13 2 -3 4 22 4 25 0 35 -2 23 -4z m2308 -835 c-8 -88 -8 -84 -8 72 0 139 1
154 8 93 5 -39 5 -114 0 -165z m-4527 -188 c-26 -38 -49 -70 -51 -70 -5 0 2
12 49 83 21 31 41 57 43 57 3 0 -16 -31 -41 -70z m-69 -110 c-9 -16 -18 -30
-21 -30 -2 0 2 14 11 30 9 17 18 30 21 30 2 0 -2 -13 -11 -30z m-1122 -167
c-7 -2 -19 -2 -25 0 -7 3 -2 5 12 5 14 0 19 -2 13 -5z m-50 -10 c-7 -2 -19 -2
-25 0 -7 3 -2 5 12 5 14 0 19 -2 13 -5z m-58 -13 c-27 -12 -43 -12 -25 0 8 5
22 9 30 9 10 0 8 -3 -5 -9z m-135 -34 c0 -2 -8 -10 -17 -17 -16 -13 -17 -12
-4 4 13 16 21 21 21 13z m597 -233 c-3 -10 -5 -2 -5 17 0 19 2 27 5 18 2 -10
2 -26 0 -35z m1890 -105 c-2 -13 -4 -3 -4 22 0 25 2 35 4 23 2 -13 2 -33 0
-45z m5761 -165 l34 -48 -32 35 c-33 36 -59 76 -43 67 5 -3 23 -27 41 -54z
m-6118 -358 c0 -9 -64 -45 -79 -45 -8 0 6 11 30 24 51 28 49 28 49 21z m4927
-297 c-3 -7 -5 -2 -5 12 0 14 2 19 5 13 2 -7 2 -19 0 -25z m-929 -263 c0 -16
-2 -15 -8 5 -4 14 -8 36 -8 50 0 22 1 22 8 -5 4 -16 8 -39 8 -50z m942 -705
c-8 -5 -19 -10 -25 -10 -5 0 -3 5 5 10 8 5 20 10 25 10 6 0 3 -5 -5 -10z
m-7407 -257 c-7 -2 -19 -2 -25 0 -7 3 -2 5 12 5 14 0 19 -2 13 -5z m2910
-1648 c-9 -19 -18 -33 -21 -31 -4 5 26 66 33 66 3 0 -3 -16 -12 -35z m3530
-356 c-10 -18 -51 -66 -92 -108 -55 -57 -59 -60 -18 -14 30 34 70 83 88 108
38 52 48 59 22 14z m1727 -35 c0 -2 -9 0 -20 6 -11 6 -20 13 -20 16 0 2 9 0
20 -6 11 -6 20 -13 20 -16z m50 -30 c0 -2 -9 0 -20 6 -11 6 -20 13 -20 16 0 2
9 0 20 -6 11 -6 20 -13 20 -16z m50 -30 c0 -2 -9 0 -20 6 -11 6 -20 13 -20 16
0 2 9 0 20 -6 11 -6 20 -13 20 -16z m-1021 -280 c-78 -81 -315 -244 -484 -333
-102 -53 -83 -40 84 59 154 92 304 197 376 263 60 55 72 61 24 11z m-711 -449
c-2 -3 -128 -64 -279 -135 -150 -72 -269 -126 -263 -120 11 11 524 258 538
259 5 1 7 -1 4 -4z m-1274 -702 c9 -18 14 -33 12 -33 -6 0 -36 55 -36 66 0 11
5 3 24 -33z m106 4 c0 -2 -10 -12 -22 -23 l-23 -19 19 23 c18 21 26 27 26 19z
m-983 -1269 c-3 -7 -5 -2 -5 12 0 14 2 19 5 13 2 -7 2 -19 0 -25z m21 -113
c-1 -31 -16 35 -16 70 0 25 2 24 9 -10 4 -22 8 -49 7 -60z"/>
</g>
</svg>
